<?xml version="1.0" encoding="UTF-8"?>
<svg version="1.1" xmlns="http://www.w3.org/2000/svg" width="250" height="250">
<path d="M0 0 C1.5 1.1875 1.5 1.1875 3 3 C3.09375 5.61328125 3.09375 5.61328125 3 8 C3.58523437 7.71125 4.17046875 7.4225 4.7734375 7.125 C15.0889896 2.66422072 27.39781816 2.06919321 38.125 5.625 C48.67278835 10.24670268 57.28546777 18.39288425 62 28.9375 C67.50819252 44.99369383 63.42398377 59.94065494 56.3449707 74.72412109 C54.63393927 78.18752778 52.8278841 81.59709528 51 85 C50.32880127 86.25031006 50.32880127 86.25031006 49.64404297 87.52587891 C40.75472234 104.00771801 40.75472234 104.00771801 35.90698242 111.38867188 C34.83649601 112.98230272 34.83649601 112.98230272 35 115 C36.134375 115.45890625 37.26875 115.9178125 38.4375 116.390625 C39.95840074 117.01025123 41.47923028 117.63005228 43 118.25 C43.74378906 118.55035156 44.48757812 118.85070312 45.25390625 119.16015625 C60.66871003 125.46011953 60.66871003 125.46011953 63 130 C64.77103267 134.47723678 66 138.1438398 66 143 C62.37 143 58.74 143 55 143 C55.99 139.37 56.98 135.74 58 132 C56.68 132 55.36 132 54 132 C54 135.27275026 54.29925156 137.846632 55 141 C51.79140521 142.71125055 50.28131861 143.3116721 46.6875 142.4375 C44.08164762 141.84437497 44.08164762 141.84437497 41.8515625 142.46875 C38.12352899 143.16328775 34.46287712 143.1063605 30.6875 143.0625 C29.94693359 143.05798828 29.20636719 143.05347656 28.44335938 143.04882812 C26.62887101 143.03712175 24.81442466 143.01918898 23 143 C23.30893932 141.3743193 23.6222695 139.74947252 23.9375 138.125 C24.11152344 137.22007812 24.28554687 136.31515625 24.46484375 135.3828125 C25 133 25 133 26 131 C22.37 131 18.74 131 15 131 C15.33 131.99 15.66 132.98 16 134 C16.33 133.34 16.66 132.68 17 132 C18.65 132 20.3 132 22 132 C22 135.63 22 139.26 22 143 C17.92976825 143.6261895 14.12361375 144 10 144 C10 140.04 10 136.08 10 132 C9.67 132.33 9.34 132.66 9 133 C9.04125 134.11375 9.0825 135.2275 9.125 136.375 C9 140 9 140 7.875 141.9375 C5.14015561 143.48724515 3.0875593 143.32162076 0 143 C-0.99 142.34 -1.98 141.68 -3 141 C-3.99 141.99 -3.99 141.99 -5 143 C-8.5 143.125 -8.5 143.125 -12 143 C-14.40222283 143 -16.7351597 143.25488817 -19.125 143.5 C-20.03507812 143.5928125 -20.94515625 143.685625 -21.8828125 143.78125 C-22.58148438 143.8534375 -23.28015625 143.925625 -24 144 C-24.33 143.34 -24.66 142.68 -25 142 C-25.33 142.33 -25.66 142.66 -26 143 C-29.4375 143.1875 -29.4375 143.1875 -33 143 C-35 141 -35 141 -35.4375 138.125 C-35 135 -35 135 -32.9921875 132.8203125 C-29.04990179 130.42200292 -26.19323206 130.54061835 -21.6875 130.75 C-20.94693359 130.76804688 -20.20636719 130.78609375 -19.44335938 130.8046875 C-17.6283429 130.85152663 -15.81399834 130.92326211 -14 131 C-13.505 131.99 -13.505 131.99 -13 133 C-12.443125 132.649375 -11.88625 132.29875 -11.3125 131.9375 C-8.46113217 130.78154007 -6.91482778 131.19032562 -4 132 C-3.67 132.99 -3.34 133.98 -3 135 C-2.34 135 -1.68 135 -1 135 C-0.67 134.01 -0.34 133.02 0 132 C-0.88429687 131.59136719 -1.76859375 131.18273437 -2.6796875 130.76171875 C-9.6479408 127.06444553 -16.35070626 121.38497502 -19.4453125 113.97265625 C-20.79243152 109.18184565 -20.70331066 105.46523053 -18.5 100.875 C-14.00917027 95.71054582 -9.79355567 92.21896119 -3 91 C-3.41511841 90.1181604 -3.41511841 90.1181604 -3.83862305 89.21850586 C-22.66531832 49.03791065 -22.66531832 49.03791065 -16.375 29.875 C-13.01112789 22.18278896 -8.19604316 16.78813292 -1.63671875 11.640625 C0.21783199 9.78164812 0.61561981 8.56253462 1 6 C0.34 6 -0.32 6 -1 6 C-1.042721 4.33388095 -1.04063832 2.66617115 -1 1 C-0.67 0.67 -0.34 0.34 0 0 Z M8.6875 28.1875 C3.93175931 33.16443794 1.78829596 37.56167734 1.5 44.5 C1.68066293 49.89730491 3.22995934 53.41212015 6 58 C6.66 58 7.32 58 8 58 C8 57.34 8 56.68 8 56 C8.99 56 9.98 56 11 56 C11.103125 55.360625 11.20625 54.72125 11.3125 54.0625 C11.539375 53.381875 11.76625 52.70125 12 52 C12.99 51.67 13.98 51.34 15 51 C15 50.34 15 49.68 15 49 C17.88437779 50.29299694 19.87219421 51.65941363 22 54 C22.99 53.01 23.98 52.02 25 51 C28.88723524 52.47446854 29.93901883 54.5052928 32 58 C33.485 58.495 33.485 58.495 35 59 C35.99 58.34 36.98 57.68 38 57 C37.505 54.03 37.505 54.03 37 51 C35.68 50.67 34.36 50.34 33 50 C33.66 48.35 34.32 46.7 35 45 C35.66 45 36.32 45 37 45 C37 44.34 37 43.68 37 43 C39 45 41 47 43 49 C44.53123685 47.46876315 44.24307107 46.06787176 44.3125 43.9375 C44.20747192 37.92225523 42.5325301 33.47759452 38.19921875 29.23828125 C28.66186573 21.5898797 18.71789112 21.56365681 8.6875 28.1875 Z M39 52 C39 53.65 39 55.3 39 57 C39.66 55.68 40.32 54.36 41 53 C40.34 52.67 39.68 52.34 39 52 Z M18 54 C18.33 54.66 18.66 55.32 19 56 C19.66 55.67 20.32 55.34 21 55 C20.01 54.67 19.02 54.34 18 54 Z M28 57 C28.33 57.99 28.66 58.98 29 60 C29.66 59.67 30.32 59.34 31 59 C30.67 58.34 30.34 57.68 30 57 C29.34 57 28.68 57 28 57 Z M20 58 C18.3553326 60.46326712 18.3553326 60.46326712 17 63 C20.11332248 62.33131686 20.11332248 62.33131686 21.1875 59.9375 C21.455625 59.298125 21.72375 58.65875 22 58 C21.34 58 20.68 58 20 58 Z M17 57 C14.39068734 57.89363605 14.39068734 57.89363605 12 59 C12.66 60.32 13.32 61.64 14 63 C15.65 61.35 17.3 59.7 19 58 C18.34 57.67 17.68 57.34 17 57 Z M22 60 C21.67 60.66 21.34 61.32 21 62 C21.99 61.67 22.98 61.34 24 61 C23.34 60.67 22.68 60.34 22 60 Z M30 131 C30.99 133.97 31.98 136.94 33 140 C33.33 140 33.66 140 34 140 C34 137.36 34 134.72 34 132 C36.97 132.495 36.97 132.495 40 133 C40.33 132.34 40.66 131.68 41 131 C37.37 131 33.74 131 30 131 Z M42 131 C44.71549154 133.30671915 44.71549154 133.30671915 47.1875 132.625 C47.785625 132.41875 48.38375 132.2125 49 132 C49.33 132.66 49.66 133.32 50 134 C50.33 133.01 50.66 132.02 51 131 C48.03 131 45.06 131 42 131 Z M44 134 C43.67 135.32 43.34 136.64 43 138 C43.99 138.495 43.99 138.495 45 139 C45 137.35 45 135.7 45 134 C44.67 134 44.34 134 44 134 Z M-9 136 C-9 136.99 -9 137.98 -9 139 C-8.34 138.67 -7.68 138.34 -7 138 C-7 137.34 -7 136.68 -7 136 C-7.66 136 -8.32 136 -9 136 Z M3 136 C3 136.99 3 137.98 3 139 C3.66 138.67 4.32 138.34 5 138 C5 137.34 5 136.68 5 136 C4.34 136 3.68 136 3 136 Z " fill="#000101" transform="translate(102,46)"/>
<path d="M0 0 C0 0.66 0 1.32 0 2 C-0.83144531 2.12117188 -1.66289062 2.24234375 -2.51953125 2.3671875 C-3.60621094 2.53476563 -4.69289062 2.70234375 -5.8125 2.875 C-6.89144531 3.03742188 -7.97039062 3.19984375 -9.08203125 3.3671875 C-12.17321793 3.85132338 -12.17321793 3.85132338 -15 6 C-15 6.99 -15 7.98 -15 9 C-13.77023438 9.25394531 -12.54046875 9.50789063 -11.2734375 9.76953125 C-9.6405336 10.11675794 -8.00772611 10.46443823 -6.375 10.8125 C-5.56675781 10.97814453 -4.75851563 11.14378906 -3.92578125 11.31445312 C2.55365031 12.71042822 8.87333925 14.44487976 13 20 C13.5625 23 13.5625 23 13 26 C9.5958511 29.15657444 5.98718825 31.14396781 1.8125 33.125 C-2.42574982 35.09169649 -2.42574982 35.09169649 -6 38 C-6.58414702 41.37306618 -6.58414702 41.37306618 -6 45 C-2.578175 49.11258594 1.17074745 51.38708476 6 53.5 C6.6499292 53.79479248 7.2998584 54.08958496 7.96948242 54.39331055 C13.38935081 56.81800582 18.90247055 58.9439408 24.48828125 60.95703125 C27 62 27 62 29 64 C29 64.99 29 65.98 29 67 C20.95876535 67.18623207 12.91844699 67.32793843 4.87558174 67.41449738 C1.13990675 67.45606499 -2.59428192 67.51233982 -6.32910156 67.60351562 C-9.94080076 67.69112327 -13.55108061 67.73841235 -17.16376114 67.75901794 C-18.53451997 67.77368038 -19.90521027 67.80231315 -21.27535629 67.84584045 C-30.10513644 68.11491978 -35.37368449 67.15672116 -41.98342896 61.10705566 C-46.99665909 55.86887922 -50.90793775 51.64780372 -51.21875 44.09765625 C-50.83415895 40.40970282 -49.51185846 38.69127693 -47 36 C-41.98591231 32.10637883 -36.55353507 28 -30 28 C-30 27.34 -30 26.68 -30 26 C-26.7 24.68 -23.4 23.36 -20 22 C-20 21.01 -20 20.02 -20 19 C-20.60328125 18.75765625 -21.2065625 18.5153125 -21.828125 18.265625 C-30.6119403 14.58208955 -30.6119403 14.58208955 -33 11 C-33.125 8.5 -33.125 8.5 -32 6 C-23.46739462 -0.94514391 -10.57543658 -3.00791199 0 0 Z " fill="#F2FBFB" transform="translate(134,109)"/>
<path d="M0 0 C-3.82950292 2.55300194 -7.91691078 4.34077784 -12.08984375 6.26953125 C-15.83398022 8.49591039 -18.05902733 11.11805465 -20 15 C-20.44432634 21.56769867 -18.30274092 25.73234017 -14.27734375 30.76171875 C-13.52582031 31.50035156 -12.77429688 32.23898438 -12 33 C-11.51805679 33.49592148 -11.03611359 33.99184296 -10.53956604 34.50279236 C-4.17627953 40.20187217 2.38789615 39.86407791 10.5625 39.8046875 C11.96356477 39.8159539 13.36461068 39.82984162 14.765625 39.84622192 C18.42855855 39.8820874 22.09065457 39.88265585 25.75372314 39.87554932 C29.50133005 39.87463286 33.24862896 39.90754504 36.99609375 39.9375 C44.33084032 39.99119946 51.66503337 40.00756399 59 40 C59.495 39.01 59.495 39.01 60 38 C62.05362055 43.08940744 63.43179252 47.54520815 64 53 C60.37 53 56.74 53 53 53 C53.99 49.37 54.98 45.74 56 42 C54.68 42 53.36 42 52 42 C52 45.27275026 52.29925156 47.846632 53 51 C49.79140521 52.71125055 48.28131861 53.3116721 44.6875 52.4375 C42.08164762 51.84437497 42.08164762 51.84437497 39.8515625 52.46875 C36.12352899 53.16328775 32.46287712 53.1063605 28.6875 53.0625 C27.94693359 53.05798828 27.20636719 53.05347656 26.44335938 53.04882812 C24.62887101 53.03712175 22.81442466 53.01918898 21 53 C21.30893932 51.3743193 21.6222695 49.74947252 21.9375 48.125 C22.11152344 47.22007812 22.28554687 46.31515625 22.46484375 45.3828125 C23 43 23 43 24 41 C20.37 41 16.74 41 13 41 C13.33 41.99 13.66 42.98 14 44 C14.495 43.01 14.495 43.01 15 42 C16.65 42 18.3 42 20 42 C20 45.63 20 49.26 20 53 C15.92976825 53.6261895 12.12361375 54 8 54 C8 50.04 8 46.08 8 42 C7.67 42.33 7.34 42.66 7 43 C7.04125 44.11375 7.0825 45.2275 7.125 46.375 C7 50 7 50 5.875 51.9375 C3.14015561 53.48724515 1.0875593 53.32162076 -2 53 C-2.99 52.34 -3.98 51.68 -5 51 C-5.66 51.66 -6.32 52.32 -7 53 C-10.5 53.125 -10.5 53.125 -14 53 C-16.40222283 53 -18.7351597 53.25488817 -21.125 53.5 C-22.03507812 53.5928125 -22.94515625 53.685625 -23.8828125 53.78125 C-24.93082031 53.88953125 -24.93082031 53.88953125 -26 54 C-26.33 53.34 -26.66 52.68 -27 52 C-27.495 52.495 -27.495 52.495 -28 53 C-31.4375 53.1875 -31.4375 53.1875 -35 53 C-37 51 -37 51 -37.4375 48.125 C-37 45 -37 45 -34.9921875 42.8203125 C-31.04990179 40.42200292 -28.19323206 40.54061835 -23.6875 40.75 C-22.94693359 40.76804688 -22.20636719 40.78609375 -21.44335938 40.8046875 C-19.6283429 40.85152663 -17.81399834 40.92326211 -16 41 C-15.67 41.66 -15.34 42.32 -15 43 C-14.1646875 42.4740625 -14.1646875 42.4740625 -13.3125 41.9375 C-10.46113217 40.78154007 -8.91482778 41.19032562 -6 42 C-5.67 42.99 -5.34 43.98 -5 45 C-4.34 45 -3.68 45 -3 45 C-2.67 44.01 -2.34 43.02 -2 42 C-2.88429687 41.59136719 -3.76859375 41.18273437 -4.6796875 40.76171875 C-11.6479408 37.06444553 -18.35070626 31.38497502 -21.4453125 23.97265625 C-22.79243152 19.18184565 -22.70331066 15.46523053 -20.5 10.875 C-15.05902105 4.61787421 -8.61449118 -0.49225664 0 0 Z M28 41 C28.99 43.97 29.98 46.94 31 50 C31.33 50 31.66 50 32 50 C32 47.36 32 44.72 32 42 C34.97 42.495 34.97 42.495 38 43 C38.33 42.34 38.66 41.68 39 41 C35.37 41 31.74 41 28 41 Z M40 41 C42.71549154 43.30671915 42.71549154 43.30671915 45.1875 42.625 C45.785625 42.41875 46.38375 42.2125 47 42 C47.33 42.66 47.66 43.32 48 44 C48.33 43.01 48.66 42.02 49 41 C46.03 41 43.06 41 40 41 Z M42 44 C41.67 45.32 41.34 46.64 41 48 C41.99 48.495 41.99 48.495 43 49 C43 47.35 43 45.7 43 44 C42.67 44 42.34 44 42 44 Z M-11 46 C-11 46.99 -11 47.98 -11 49 C-10.34 48.67 -9.68 48.34 -9 48 C-9 47.34 -9 46.68 -9 46 C-9.66 46 -10.32 46 -11 46 Z M1 46 C1 46.99 1 47.98 1 49 C1.66 48.67 2.32 48.34 3 48 C3 47.34 3 46.68 3 46 C2.34 46 1.68 46 1 46 Z " fill="#60E4E6" transform="translate(104,136)"/>
<path d="M0 0 C1.11084961 0.02707031 1.11084961 0.02707031 2.24414062 0.0546875 C4.0591571 0.10152663 5.87350166 0.17326211 7.6875 0.25 C8.0175 0.91 8.3475 1.57 8.6875 2.25 C9.244375 1.899375 9.80125 1.54875 10.375 1.1875 C13.22636783 0.03154007 14.77267222 0.44032562 17.6875 1.25 C18.0175 2.24 18.3475 3.23 18.6875 4.25 C19.3475 4.25 20.0075 4.25 20.6875 4.25 C21.0175 3.26 21.3475 2.27 21.6875 1.25 C25.0625 0.625 25.0625 0.625 28.6875 0.25 C30.6875 2.25 30.6875 2.25 31 5.6875 C30.6875 9.25 30.6875 9.25 29.5625 11.1875 C26.82765561 12.73724515 24.7750593 12.57162076 21.6875 12.25 C20.6975 11.59 19.7075 10.93 18.6875 10.25 C18.0275 10.91 17.3675 11.57 16.6875 12.25 C13.1875 12.375 13.1875 12.375 9.6875 12.25 C7.28527717 12.25 4.9523403 12.50488817 2.5625 12.75 C1.65242188 12.8428125 0.74234375 12.935625 -0.1953125 13.03125 C-1.24332031 13.13953125 -1.24332031 13.13953125 -2.3125 13.25 C-2.6425 12.59 -2.9725 11.93 -3.3125 11.25 C-3.6425 11.58 -3.9725 11.91 -4.3125 12.25 C-7.75 12.4375 -7.75 12.4375 -11.3125 12.25 C-13.3125 10.25 -13.3125 10.25 -13.75 7.375 C-13.3125 4.25 -13.3125 4.25 -11.3046875 2.0703125 C-7.36240179 -0.32799708 -4.50573206 -0.20938165 0 0 Z M12.6875 5.25 C12.6875 6.24 12.6875 7.23 12.6875 8.25 C13.3475 7.92 14.0075 7.59 14.6875 7.25 C14.6875 6.59 14.6875 5.93 14.6875 5.25 C14.0275 5.25 13.3675 5.25 12.6875 5.25 Z M24.6875 5.25 C24.6875 6.24 24.6875 7.23 24.6875 8.25 C25.3475 7.92 26.0075 7.59 26.6875 7.25 C26.6875 6.59 26.6875 5.93 26.6875 5.25 C26.0275 5.25 25.3675 5.25 24.6875 5.25 Z " fill="#FABB14" transform="translate(80.3125,176.75)"/>
<path d="M0 0 C3.63552143 1.6297165 6.08013615 3.22159657 7.9375 6.8125 C8.03706817 10.2973859 6.0260178 12.29864293 4 15 C5.15173355 17.46800047 6.04783565 19.04783565 8 21 C4.17902761 20.46930939 1.93828597 19.50298434 -1 17 C-1.495 18.485 -1.495 18.485 -2 20 C-5.30766157 21.10255386 -5.80771958 20.82087211 -9 20 C-10.99963028 19.96154557 -13.00051633 19.95455719 -15 20 C-15 19.34 -15 18.68 -15 18 C-15.66 18.33 -16.32 18.66 -17 19 C-17 18.01 -17 17.02 -17 16 C-17.45375 16.66 -17.9075 17.32 -18.375 18 C-18.91125 18.66 -19.4475 19.32 -20 20 C-20.66 20 -21.32 20 -22 20 C-21.67 19.01 -21.34 18.02 -21 17 C-20.34 17 -19.68 17 -19 17 C-19.33 16.34 -19.66 15.68 -20 15 C-21.65 15.33 -23.3 15.66 -25 16 C-24.34 17.32 -23.68 18.64 -23 20 C-23.763125 19.835 -24.52625 19.67 -25.3125 19.5 C-28.03596236 18.90854604 -28.03596236 18.90854604 -31 19 C-31.66 19.66 -32.32 20.32 -33 21 C-33.99 21.33 -34.98 21.66 -36 22 C-34.76448756 18.29346269 -33.03334922 17.35084565 -30 15 C-29.67 14.34 -29.34 13.68 -29 13 C-28.01 13 -27.02 13 -26 13 C-25.896875 12.401875 -25.79375 11.80375 -25.6875 11.1875 C-24.88790525 8.64333489 -24.18025682 7.5342548 -22 6 C-19.34305562 6.16605902 -18.23616321 6.78913999 -16.25 8.5625 C-15.8375 9.036875 -15.425 9.51125 -15 10 C-14.01 9.01 -13.02 8.02 -12 7 C-8.11276476 8.47446854 -7.06098117 10.5052928 -5 14 C-3.515 14.495 -3.515 14.495 -2 15 C-1.34 14.67 -0.68 14.34 0 14 C-0.18828772 11.55519921 -0.18828772 11.55519921 -1 9 C-2.96758273 7.63979849 -2.96758273 7.63979849 -5 7 C-3.75023244 3.34683329 -3.32901247 2.21934164 0 0 Z M2 9 C2 10.65 2 12.3 2 14 C2.66 12.68 3.32 11.36 4 10 C3.34 9.67 2.68 9.34 2 9 Z M-19 11 C-18.67 11.66 -18.34 12.32 -18 13 C-17.34 12.67 -16.68 12.34 -16 12 C-16.99 11.67 -17.98 11.34 -19 11 Z M-9 14 C-8.67 14.99 -8.34 15.98 -8 17 C-7.34 16.67 -6.68 16.34 -6 16 C-6.33 15.34 -6.66 14.68 -7 14 C-7.66 14 -8.32 14 -9 14 Z " fill="#7F2002" transform="translate(139,89)"/>
<path d="M0 0 C2.375 0.1875 2.375 0.1875 5 1 C6.3125 3.5625 6.3125 3.5625 7 6 C7.33 4.35 7.66 2.7 8 1 C8.94875 1.020625 9.8975 1.04125 10.875 1.0625 C13.90666283 1.22551826 13.90666283 1.22551826 16 0 C22.70588235 0.70588235 22.70588235 0.70588235 24 2 C24.33 1.34 24.66 0.68 25 0 C26.32 0.66 27.64 1.32 29 2 C28.835 2.7425 28.67 3.485 28.5 4.25 C27.88074304 7.19006578 27.88074304 7.19006578 28 11 C24.23400926 11.96839762 21.76608456 11.75321691 18 11 C16.94232422 11.23009766 16.94232422 11.23009766 15.86328125 11.46484375 C12.13084792 12.16244725 8.46761255 12.10641552 4.6875 12.0625 C3.94693359 12.05798828 3.20636719 12.05347656 2.44335938 12.04882812 C0.62887101 12.03712175 -1.18557534 12.01918898 -3 12 C-2.69106068 10.3743193 -2.3777305 8.74947252 -2.0625 7.125 C-1.88847656 6.22007812 -1.71445313 5.31515625 -1.53515625 4.3828125 C-1 2 -1 2 0 0 Z M18 3 C17.67 4.32 17.34 5.64 17 7 C17.99 7.495 17.99 7.495 19 8 C19 6.35 19 4.7 19 3 C18.67 3 18.34 3 18 3 Z " fill="#000000" transform="translate(128,177)"/>
<path d="M0 0 C0.33 0.99 0.66 1.98 1 3 C1.33 2.34 1.66 1.68 2 1 C3.65 1 5.3 1 7 1 C7 4.63 7 8.26 7 12 C2.92976825 12.6261895 -0.87638625 13 -5 13 C-5 9.04 -5 5.08 -5 1 C-2 0 -2 0 0 0 Z " fill="#FAB914" transform="translate(117,177)"/>
<path d="M0 0 C2.05078125 0.03255208 4.1015625 0.06510417 6.15234375 0.09765625 C6.23325346 1.7218437 6.2914937 3.3471737 6.33984375 4.97265625 C6.37464844 5.87757813 6.40945312 6.7825 6.4453125 7.71484375 C6.34863281 8.50117188 6.25195312 9.2875 6.15234375 10.09765625 C2.93020618 12.24574796 1.87458974 12.39151778 -1.84765625 12.09765625 C-2.84765625 11.09765625 -2.84765625 11.09765625 -2.98046875 8.84765625 C-2.97789062 7.94015625 -2.9753125 7.03265625 -2.97265625 6.09765625 C-2.97523438 5.19015625 -2.9778125 4.28265625 -2.98046875 3.34765625 C-2.81750736 0.58689864 -2.7691363 0.14636027 0 0 Z " fill="#000000" transform="translate(181.84765625,177.90234375)"/>
<path d="M0 0 C1.89128342 1.89128342 1.2366852 4.57067726 1.328125 7.08984375 C1.21984375 7.72019531 1.1115625 8.35054687 1 9 C-2.4352048 11.29013653 -3.985331 11.17842973 -8 11 C-8 7.37 -8 3.74 -8 0 C-5.11795733 -1.44102133 -3.08226581 -0.65580124 0 0 Z M-4 4 C-3 7 -3 7 -3 7 Z " fill="#000000" transform="translate(177,178)"/>
<path d="M0 0 C1.32 0 2.64 0 4 0 C4.50833591 1.24663331 5.00631145 2.49749387 5.5 3.75 C5.7784375 4.44609375 6.056875 5.1421875 6.34375 5.859375 C7 8 7 8 7 12 C3.37 12 -0.26 12 -4 12 C-3.52494322 10.18641846 -3.04483958 8.37415821 -2.5625 6.5625 C-2.29566406 5.55316406 -2.02882812 4.54382813 -1.75390625 3.50390625 C-1 1 -1 1 0 0 Z " fill="#000000" transform="translate(161,177)"/>
<path d="M0 0 C3.56677493 1.59889911 6.26333979 3.10686246 7.7265625 6.8671875 C8.08491036 9.66230085 7.36642989 10.53665018 5.6875 12.75 C5.01267578 13.67039062 5.01267578 13.67039062 4.32421875 14.609375 C3.88722656 15.06828125 3.45023438 15.5271875 3 16 C2.34 16 1.68 16 1 16 C0.62875 14.329375 0.62875 14.329375 0.25 12.625 C-0.61005339 8.95384802 -0.61005339 8.95384802 -3.125 7.5625 C-3.74375 7.376875 -4.3625 7.19125 -5 7 C-3.75023244 3.34683329 -3.32901247 2.21934164 0 0 Z M2 9 C2 10.65 2 12.3 2 14 C2.66 12.68 3.32 11.36 4 10 C3.34 9.67 2.68 9.34 2 9 Z " fill="#343434" transform="translate(139,89)"/>
<path d="M0 0 C2 0 4 0 6 0 C6.33 0.99 6.66 1.98 7 3 C7.66 3 8.32 3 9 3 C9 4.65 9 6.3 9 8 C8.34 8 7.68 8 7 8 C6.67 8.99 6.34 9.98 6 11 C5.401875 10.835 4.80375 10.67 4.1875 10.5 C1.88655664 9.8885876 1.88655664 9.8885876 -1 10 C-0.67 9.34 -0.34 8.68 0 8 C-0.66 8 -1.32 8 -2 8 C-2.20086443 4.28400809 -2.1519437 3.22791555 0 0 Z " fill="#FAB106" transform="translate(112,78)"/>
<path d="M0 0 C0 0.66 0 1.32 0 2 C-3.9813783 3.3271261 -7.85045227 3.06915913 -12 3 C-12 2.67 -12 2.34 -12 2 C-16.78478822 1.90235126 -21.27685687 2.22887459 -26 3 C-18.83646989 -1.77568674 -8.19839072 -2.29775525 0 0 Z " fill="#7DDBDD" transform="translate(134,109)"/>
<path d="M0 0 C1.65 1.32 3.3 2.64 5 4 C0.545 5.485 0.545 5.485 -4 7 C-4 5.68 -4 4.36 -4 3 C-2 1.25 -2 1.25 0 0 Z " fill="#220F08" transform="translate(109,106)"/>
<path d="M0 0 C1.98 0 3.96 0 6 0 C6 1.32 6 2.64 6 4 C4.02 4 2.04 4 0 4 C0 2.68 0 1.36 0 0 Z " fill="#000000" transform="translate(117,42)"/>
<path d="M0 0 C0.99 0.495 0.99 0.495 2 1 C2 1.66 2 2.32 2 3 C2.66 3 3.32 3 4 3 C4.33 4.65 4.66 6.3 5 8 C3.68 8 2.36 8 1 8 C0.67 5.36 0.34 2.72 0 0 Z " fill="#000000" transform="translate(105,41)"/>
<path d="M0 0 C0.66 0 1.32 0 2 0 C2 1.98 2 3.96 2 6 C1.01 6.33 0.02 6.66 -1 7 C-1.66 6.67 -2.32 6.34 -3 6 C-2 4 -1 2 0 0 Z " fill="#000000" transform="translate(148,45)"/>
<path d="M0 0 C1.485 0.99 1.485 0.99 3 2 C3.33 1.34 3.66 0.68 4 0 C5.32 0.66 6.64 1.32 8 2 C4.77208445 4.1519437 3.71599191 4.20086443 0 4 C0 2.68 0 1.36 0 0 Z " fill="#000000" transform="translate(125,88)"/>
<path d="M0 0 C1.32 0 2.64 0 4 0 C4 1.32 4 2.64 4 4 C2.68 4 1.36 4 0 4 C0 2.68 0 1.36 0 0 Z " fill="#000000" transform="translate(111,43)"/>
<path d="M0 0 C1.485 0.99 1.485 0.99 3 2 C2.67 2.99 2.34 3.98 2 5 C1.01 5 0.02 5 -1 5 C-0.67 3.35 -0.34 1.7 0 0 Z " fill="#000000" transform="translate(85,60)"/>
<path d="M0 0 C1.98 0.495 1.98 0.495 4 1 C4 1.66 4 2.32 4 3 C2.68 3.33 1.36 3.66 0 4 C0 2.68 0 1.36 0 0 Z " fill="#000000" transform="translate(158,57)"/>
<path d="M0 0 C1.98 0.99 1.98 0.99 4 2 C4 2.66 4 3.32 4 4 C2.68 4.33 1.36 4.66 0 5 C0 3.35 0 1.7 0 0 Z " fill="#000000" transform="translate(88,56)"/>
<path d="M0 0 C0 0.66 0 1.32 0 2 C-4.47058824 6 -4.47058824 6 -7 6 C-5.81636731 2.44910192 -3.99368042 0 0 0 Z " fill="#000000" transform="translate(161,52)"/>
<path d="M0 0 C1.98 0.495 1.98 0.495 4 1 C3.67 1.99 3.34 2.98 3 4 C1.68 3.67 0.36 3.34 -1 3 C-0.67 2.01 -0.34 1.02 0 0 Z " fill="#000000" transform="translate(151,51)"/>
<path d="M0 0 C0.99 0.33 1.98 0.66 3 1 C2.67 2.32 2.34 3.64 2 5 C1.01 5 0.02 5 -1 5 C-0.67 3.35 -0.34 1.7 0 0 Z " fill="#000000" transform="translate(132,42)"/>
<path d="M0 0 C1.32 0 2.64 0 4 0 C4 1.32 4 2.64 4 4 C2.68 4 1.36 4 0 4 C0 2.68 0 1.36 0 0 Z " fill="#000000" transform="translate(125,42)"/>
<path d="M0 0 C2.0625 0.4375 2.0625 0.4375 4 1 C3.67 1.99 3.34 2.98 3 4 C2.01 4.33 1.02 4.66 0 5 C-0.5625 3.0625 -0.5625 3.0625 -1 1 C-0.67 0.67 -0.34 0.34 0 0 Z " fill="#000000" transform="translate(164,64)"/>
<path d="M0 0 C0.99 0.33 1.98 0.66 3 1 C2.34 2.32 1.68 3.64 1 5 C0.34 5 -0.32 5 -1 5 C-0.67 3.35 -0.34 1.7 0 0 Z " fill="#000000" transform="translate(142,45)"/>
<path d="M0 0 C0.99 0.33 1.98 0.66 3 1 C3 2.32 3 3.64 3 5 C2.01 4.67 1.02 4.34 0 4 C0 2.68 0 1.36 0 0 Z " fill="#000000" transform="translate(92,52)"/>
<path d="M0 0 C0.66 0.33 1.32 0.66 2 1 C1.34 1.66 0.68 2.32 0 3 C-0.99 2.67 -1.98 2.34 -3 2 C-2.01 1.34 -1.02 0.68 0 0 Z " fill="#000000" transform="translate(163,61)"/>
<path d="M0 0 C0.66 0 1.32 0 2 0 C1.67 0.66 1.34 1.32 1 2 C0.67 1.34 0.34 0.68 0 0 Z " fill="#000000" transform="translate(132,87)"/>
<path d="" fill="#000000" transform="translate(0,0)"/>
</svg>
